<svg width="74" height="84" viewBox="0 0 74 84" fill="none" xmlns="http://www.w3.org/2000/svg">
<path d="M73.9999 0.296831C73.9999 0.257254 73.9802 0.227571 73.9703 0.19294C73.9653 0.173151 73.9653 0.15831 73.9554 0.143468C73.9208 0.0841021 73.8713 0.0346303 73.807 0.00989437C73.807 0.00989437 73.7971 0.00989437 73.7922 0.00989437C73.7922 0.00989437 73.7922 0.00989437 73.7872 0.00494719C73.7724 0.00494719 73.7625 0.00989437 73.7526 0.00494719C73.6932 -0.00494719 73.6388 0 73.5893 0.0197887C73.5646 0.0296831 73.5497 0.0395775 73.525 0.0593662C73.5052 0.0742078 73.4854 0.0742078 73.4656 0.0939965L0.0790906 82.8802C0.0543547 82.9099 0.0543547 82.9495 0.0444603 82.9841C0.0296187 83.0187 0.00488281 83.0434 0.00488281 83.088C0.00488281 83.088 0.00488281 83.0929 0.00488281 83.0979C0.00488281 83.1375 0.0345659 83.1671 0.0494075 83.2067C0.064249 83.2413 0.0691962 83.2859 0.0988793 83.3106C0.0988793 83.3106 0.0988793 83.3155 0.0988793 83.3205C0.158246 83.3749 0.232453 83.3997 0.301714 83.3997H48.2845C48.3537 83.3997 48.423 83.37 48.4725 83.3254C48.4725 83.3254 48.4824 83.3254 48.4873 83.3205L73.8911 60.7415C73.8911 60.7415 73.8911 60.7366 73.8911 60.7316C73.9208 60.7069 73.9257 60.6624 73.9406 60.6278C73.9554 60.5882 73.9851 60.5585 73.9851 60.5189C73.9851 60.5189 73.9851 60.5189 73.9851 60.509V0.296831H73.9999ZM1.68198 81.9996C1.68198 81.9996 1.69187 82.0045 1.69682 82.0045C1.73145 82.0045 1.77103 81.9897 1.79576 81.965L2.72584 81.1388C2.79015 81.0844 2.7951 80.9854 2.74068 80.9211C2.72089 80.9013 2.69615 80.8914 2.66647 80.8865L68.5234 6.5946C68.5234 6.64407 68.5333 6.69354 68.5729 6.72322C68.6026 6.74796 68.6372 6.75785 68.6669 6.75785C68.7114 6.75785 68.7559 6.73807 68.7856 6.69849L69.5574 5.72884C69.6118 5.66453 69.6019 5.56558 69.5326 5.51116C69.5178 5.50127 69.503 5.50127 69.4881 5.49632L70.1214 4.77898C70.1461 4.79877 70.1807 4.80866 70.2104 4.80866C70.2549 4.80866 70.2995 4.78888 70.3291 4.7493L71.1009 3.77965C71.1306 3.74007 71.1355 3.6906 71.1207 3.64608L71.8529 2.8199C71.8529 2.8199 71.8677 2.8199 71.8727 2.81L71.9765 2.68137L72.9759 1.55342L48.0519 82.7714H0.989373L1.68198 81.9947V81.9996Z" fill="#A93935"/>
</svg>
