<svg width="70" height="69" viewBox="0 0 70 69" fill="none" xmlns="http://www.w3.org/2000/svg">
<path d="M66.1196 31.3109L38.6893 32.9784L59.2412 14.761C59.3246 14.6777 59.4496 14.5943 59.533 14.4692C60.7003 13.1352 60.5752 11.1342 59.2412 9.96698C57.9072 8.79973 55.9062 8.9248 54.739 10.2588L36.5216 30.8107L38.1891 3.38038C38.1891 3.25532 38.1891 3.13026 38.1891 3.0052C38.064 1.25433 36.5633 -0.0796706 34.8124 0.00370414C33.0615 0.128766 31.7275 1.62951 31.8109 3.38038L33.4784 30.8107L15.261 10.2588C15.1777 10.1754 15.0943 10.0504 14.9692 9.96698C13.6352 8.79973 11.6342 8.9248 10.467 10.2588C9.29974 11.5928 9.4248 13.5938 10.7588 14.761L31.3107 32.9784L3.88038 31.3109C3.75532 31.3109 3.63026 31.3109 3.50519 31.3109C1.75433 31.436 0.420329 32.9367 0.503704 34.6876C0.628766 36.4385 2.12951 37.7724 3.88038 37.6891L31.3107 36.0216L10.7588 54.239C10.6754 54.3223 10.5504 54.4057 10.467 54.5308C9.29974 55.8648 9.4248 57.8658 10.7588 59.033C12.0928 60.2002 14.0938 60.0752 15.261 58.7412L33.4784 38.1893L31.8109 65.6196C31.8109 65.7447 31.8109 65.8697 31.8109 65.9948C31.936 67.7457 33.4367 69.0797 35.1876 68.9963C36.9385 68.8712 38.2725 67.3705 38.1891 65.6196L36.5216 38.1893L54.739 58.7412C54.8223 58.8246 54.9057 58.9496 55.0308 59.033C56.3648 60.2002 58.3658 60.0752 59.533 58.7412C60.7003 57.4072 60.5752 55.4062 59.2412 54.239L38.6893 36.0216L66.1196 37.6891C66.2447 37.6891 66.3697 37.6891 66.4948 37.6891C68.2457 37.564 69.5797 36.0633 69.4963 34.3124C69.3712 32.5615 67.8705 31.2275 66.1196 31.3109Z" fill="#A93935"/>
</svg>
