<svg width="74" height="86" viewBox="0 0 74 86" fill="none" xmlns="http://www.w3.org/2000/svg">
<g clip-path="url(#clip0_33_7670)">
<path d="M45.5868 47.3696C45.4781 47.3044 45.3405 47.3407 45.2825 47.4493C45.2173 47.558 45.2535 47.6957 45.3622 47.7537L48.4781 49.5508C48.4781 49.5508 48.5506 49.5798 48.5941 49.5798C48.6738 49.5798 48.7462 49.5363 48.7897 49.4638C48.8477 49.3551 48.8187 49.2175 48.7028 49.1595L45.5868 47.3624V47.3696Z" fill="#A93935"/>
<path d="M64.2757 58.1739C64.167 58.1159 64.0293 58.1449 63.9714 58.2536C63.9134 58.3623 63.9424 58.5 64.0583 58.558L67.1743 60.3551C67.1743 60.3551 67.2467 60.3841 67.2902 60.3841C67.3699 60.3841 67.4424 60.3406 67.4859 60.2754C67.5438 60.1667 67.5148 60.029 67.3989 59.971L64.283 58.1739H64.2757Z" fill="#A93935"/>
<path d="M39.3622 43.7682C39.2535 43.703 39.1158 43.7392 39.0579 43.8479C38.9927 43.9566 39.0289 44.0943 39.1376 44.1523L42.2535 45.9494C42.2535 45.9494 42.326 45.9783 42.3695 45.9783C42.4492 45.9783 42.5216 45.9349 42.5651 45.8624C42.6303 45.7537 42.5941 45.616 42.4854 45.5581L39.3695 43.761L39.3622 43.7682Z" fill="#A93935"/>
<path d="M58.0511 54.5724C57.9424 54.5072 57.8047 54.5434 57.7468 54.6521C57.6888 54.7608 57.7178 54.8985 57.8337 54.9565L60.9497 56.7536C60.9497 56.7536 61.0221 56.7825 61.0656 56.7825C61.1453 56.7825 61.2178 56.7391 61.2613 56.6666C61.3265 56.5579 61.2902 56.4202 61.1815 56.3623L58.0656 54.5579L58.0511 54.5724Z" fill="#A93935"/>
<path d="M51.8193 50.9709C51.7106 50.9129 51.5729 50.9419 51.5149 51.0506C51.4497 51.1593 51.4859 51.297 51.5946 51.355L54.7106 53.1593C54.7106 53.1593 54.783 53.1883 54.8193 53.1883C54.899 53.1883 54.9714 53.1448 55.0149 53.0724C55.0801 52.9637 55.0439 52.826 54.9352 52.768L51.8193 50.9709Z" fill="#A93935"/>
<path d="M74 21.5797C74 21.5362 73.9638 21.5072 73.9565 21.471C73.9493 21.4348 73.9565 21.3913 73.942 21.3551C73.9348 21.3333 73.9058 21.3333 73.8986 21.3188C73.8696 21.2826 73.8406 21.2609 73.8043 21.2319C73.7754 21.2029 73.7754 21.1667 73.7391 21.1449L37.2029 0.0289855C37.2029 0.0289855 37.1594 0.0289855 37.1449 0.0217391C37.087 0 37.0362 0 36.9783 0C36.9203 0 36.8696 0 36.8188 0.0217391C36.7971 0.0289855 36.7754 0.0217391 36.7536 0.0289855L0.224638 21.1449C0.224638 21.1449 0.202899 21.1812 0.188406 21.1957C0.15942 21.2246 0.130435 21.2464 0.108696 21.2754C0.0942029 21.2899 0.0724638 21.2899 0.057971 21.3116C0.0434783 21.3333 0.057971 21.3551 0.0507246 21.3696C0.0362319 21.4058 0.0289855 21.4348 0.0217391 21.4783C0.0217391 21.5 0 21.5145 0 21.5362V63.7681C0 63.7681 0.0217391 63.8043 0.0217391 63.8261C0.0289855 63.8841 0.057971 63.9275 0.0869565 63.9783C0.115942 64.029 0.144928 64.0725 0.188406 64.1087C0.202899 64.1232 0.202899 64.1449 0.224638 64.1594L36.7971 85.2754C36.8623 85.3116 36.942 85.3333 37.0217 85.3333C37.1014 85.3333 37.1739 85.3116 37.2464 85.2754L73.7754 64.2029C73.7754 64.2029 73.7971 64.1667 73.8116 64.1522C73.8623 64.1159 73.8841 64.0725 73.913 64.0217C73.942 63.971 73.971 63.9275 73.9783 63.8696C73.9783 63.8478 74 63.8333 74 63.8116V21.5797ZM36.9783 4.23913C37.1014 4.23913 37.2029 4.13768 37.2029 4.01449V1.06522L72.6739 21.5725L37.029 42.1812L1.34783 21.5362L36.7536 1.06522V4.01449C36.7536 4.13768 36.8551 4.23913 36.9783 4.23913ZM3.76087 61.8551C3.69565 61.7464 3.55797 61.7101 3.45652 61.7754L0.905797 63.2536V22.3188L36.5797 42.9638V84.1159L1.12319 63.6449L3.67391 62.1667C3.78261 62.1015 3.81884 61.9638 3.75362 61.8623L3.76087 61.8551Z" fill="#A93935"/>
<path d="M31.6012 45.9927C31.6374 45.9927 31.6809 45.9855 31.7099 45.9638L34.8258 44.1667C34.9345 44.1014 34.9707 43.9638 34.9055 43.8623C34.8403 43.7536 34.7026 43.7174 34.6012 43.7826L31.4852 45.5797C31.3765 45.6449 31.3403 45.7826 31.4055 45.8841C31.449 45.9565 31.5215 46 31.6012 46V45.9927Z" fill="#A93935"/>
<path d="M25.3693 49.5942C25.4056 49.5942 25.449 49.5869 25.4853 49.5652L28.6012 47.7681C28.7099 47.7029 28.7461 47.5652 28.6809 47.4638C28.6157 47.3551 28.478 47.3188 28.3766 47.384L25.2606 49.1811C25.1519 49.2464 25.1157 49.384 25.1809 49.4855C25.2244 49.558 25.2969 49.6014 25.3766 49.6014L25.3693 49.5942Z" fill="#A93935"/>
<path d="M6.68085 60.3913C6.71708 60.3913 6.76056 60.3841 6.79679 60.3623L9.91273 58.5652C10.0214 58.5 10.0577 58.3623 9.99244 58.2609C9.92722 58.1522 9.78954 58.1159 9.68809 58.1812L6.57215 59.9783C6.46346 60.0435 6.42722 60.1812 6.49244 60.2826C6.53592 60.3551 6.60838 60.3913 6.68809 60.3913H6.68085Z" fill="#A93935"/>
<path d="M19.1373 53.1957C19.1735 53.1957 19.217 53.1884 19.246 53.1667L22.3619 51.3623C22.4706 51.2971 22.5069 51.1594 22.4417 51.058C22.3764 50.9493 22.2388 50.9131 22.1373 50.9783L19.0214 52.7754C18.9127 52.8406 18.8764 52.9783 18.9417 53.0797C18.9851 53.1522 19.0576 53.1957 19.1373 53.1957Z" fill="#A93935"/>
<path d="M12.9059 56.7971C12.9421 56.7971 12.9856 56.7898 13.0146 56.7681L16.1305 54.971C16.2392 54.9058 16.2754 54.7681 16.2102 54.6666C16.145 54.5579 16.0073 54.5217 15.9059 54.5869L12.7899 56.3913C12.6812 56.4565 12.645 56.5942 12.7102 56.6956C12.7537 56.7681 12.8262 56.8116 12.9059 56.8116V56.7971Z" fill="#A93935"/>
<path d="M36.9785 28.9783C36.8554 28.9783 36.7539 29.0797 36.7539 29.2029V32.7971C36.7539 32.9203 36.8554 33.0217 36.9785 33.0217C37.1017 33.0217 37.2032 32.9203 37.2032 32.7971V29.2029C37.2032 29.0797 37.1017 28.9783 36.9785 28.9783Z" fill="#A93935"/>
<path d="M36.9785 21.7826C36.8554 21.7826 36.7539 21.884 36.7539 22.0072V25.6087C36.7539 25.7319 36.8554 25.8333 36.9785 25.8333C37.1017 25.8333 37.2032 25.7319 37.2032 25.6087V22.0072C37.2032 21.884 37.1017 21.7826 36.9785 21.7826Z" fill="#A93935"/>
<path d="M36.9785 36.174C36.8554 36.174 36.7539 36.2754 36.7539 36.3986V40C36.7539 40.1232 36.8554 40.2247 36.9785 40.2247C37.1017 40.2247 37.2032 40.1232 37.2032 40V36.3986C37.2032 36.2754 37.1017 36.174 36.9785 36.174Z" fill="#A93935"/>
<path d="M36.7539 11.2101C36.7539 11.3333 36.8554 11.4348 36.9785 11.4348C37.1017 11.4348 37.2032 11.3333 37.2032 11.2101V7.60867C37.2032 7.48548 37.1017 7.38403 36.9785 7.38403C36.8554 7.38403 36.7539 7.48548 36.7539 7.60867V11.2101Z" fill="#A93935"/>
<path d="M36.9785 14.5869C36.8554 14.5869 36.7539 14.6884 36.7539 14.8116V18.4058C36.7539 18.5289 36.8554 18.6304 36.9785 18.6304C37.1017 18.6304 37.2032 18.5289 37.2032 18.4058V14.8116C37.2032 14.6884 37.1017 14.5869 36.9785 14.5869Z" fill="#A93935"/>
</g>
<defs>
<clipPath id="clip0_33_7670">
<rect width="74" height="85.3406" fill="white"/>
</clipPath>
</defs>
</svg>
