<svg width="50" height="50" viewBox="0 0 50 50" fill="none" xmlns="http://www.w3.org/2000/svg">
<g clip-path="url(#clip0_34_11383)">
<rect x="1" y="1" width="48" height="48" rx="24" fill="#E39B35"/>
<mask id="path-3-inside-1_34_11383" fill="white">
<path d="M25 0.999999C21.8483 0.999999 18.7274 1.62078 15.8156 2.82689C12.9038 4.033 10.258 5.80083 8.02944 8.02944C5.80083 10.258 4.033 12.9038 2.82689 15.8156C1.62078 18.7274 0.999999 21.8483 0.999999 25C0.999999 28.1517 1.62078 31.2726 2.82689 34.1844C4.033 37.0962 5.80083 39.742 8.02944 41.9706C10.258 44.1992 12.9038 45.967 15.8156 47.1731C18.7274 48.3792 21.8483 49 25 49L25 25L25 0.999999Z"/>
</mask>
<path d="M25 0.999999C21.8483 0.999999 18.7274 1.62078 15.8156 2.82689C12.9038 4.033 10.258 5.80083 8.02944 8.02944C5.80083 10.258 4.033 12.9038 2.82689 15.8156C1.62078 18.7274 0.999999 21.8483 0.999999 25C0.999999 28.1517 1.62078 31.2726 2.82689 34.1844C4.033 37.0962 5.80083 39.742 8.02944 41.9706C10.258 44.1992 12.9038 45.967 15.8156 47.1731C18.7274 48.3792 21.8483 49 25 49L25 25L25 0.999999Z" fill="#D98918" stroke="#E39B35" mask="url(#path-3-inside-1_34_11383)"/>
<path d="M36.7336 19.395C38.1212 22.2973 38.3847 25.6107 37.473 28.6957C36.5614 31.7808 34.5393 34.4188 31.797 36.1006C29.0547 37.7825 25.7867 38.3889 22.6235 37.8029C19.4604 37.2169 16.6265 35.4799 14.6687 32.9274C12.7109 30.3748 11.7681 27.1874 12.0221 23.9805C12.2761 20.7737 13.7091 17.7745 16.0443 15.562C18.3796 13.3495 21.4516 12.0804 24.6675 11.9997C27.8835 11.919 31.0153 13.0324 33.4586 15.125L36.2923 12.29C36.48 12.1024 36.7345 11.997 36.9998 11.997C37.2652 11.997 37.5197 12.1024 37.7073 12.29C37.895 12.4776 38.0004 12.7321 38.0004 12.9975C38.0004 13.2629 37.895 13.5174 37.7073 13.705L25.7073 25.705C25.5197 25.8927 25.2652 25.9981 24.9998 25.9981C24.7345 25.9981 24.48 25.8927 24.2923 25.705C24.1047 25.5174 23.9993 25.2629 23.9993 24.9975C23.9993 24.7321 24.1047 24.4776 24.2923 24.29L27.7573 20.825C26.8183 20.204 25.6971 19.918 24.5753 20.0134C23.4535 20.1089 22.3967 20.5801 21.5761 21.3509C20.7554 22.1217 20.219 23.1469 20.0535 24.2605C19.888 25.3741 20.1032 26.511 20.6642 27.4871C21.2253 28.4632 22.0993 29.2214 23.1449 29.6389C24.1905 30.0564 25.3463 30.1089 26.4254 29.7877C27.5045 29.4666 28.4436 28.7906 29.0907 27.8693C29.7378 26.948 30.0551 25.8353 29.9911 24.7113C29.9837 24.5799 30.0022 24.4484 30.0457 24.3243C30.0891 24.2001 30.1566 24.0858 30.2442 23.9877C30.3318 23.8896 30.4379 23.8097 30.5564 23.7527C30.6749 23.6956 30.8035 23.6624 30.9348 23.655C31.2 23.6401 31.4603 23.7311 31.6584 23.9081C31.7565 23.9958 31.8363 24.1019 31.8934 24.2204C31.9505 24.3389 31.9837 24.4674 31.9911 24.5988C32.0822 26.1897 31.6278 27.7642 30.7029 29.0619C29.778 30.3596 28.438 31.3029 26.9044 31.7359C25.3708 32.1689 23.7353 32.0656 22.2683 31.4431C20.8013 30.8207 19.5906 29.7163 18.8363 28.3125C18.082 26.9088 17.8293 25.2897 18.1199 23.7228C18.4105 22.1559 19.227 20.7351 20.4345 19.6952C21.642 18.6552 23.1682 18.0584 24.7608 18.0034C26.3534 17.9484 27.9172 18.4384 29.1936 19.3925L32.0373 16.5488C29.9533 14.8185 27.3035 13.9192 24.5969 14.0236C21.8902 14.128 19.3176 15.2287 17.3731 17.1143C15.4285 19 14.2492 21.5376 14.0616 24.2397C13.874 26.9419 14.6914 29.6181 16.3568 31.7543C18.0221 33.8905 20.418 35.3361 23.0843 35.8135C25.7505 36.2909 28.4992 35.7663 30.8022 34.3406C33.1053 32.9149 34.8005 30.6886 35.5621 28.0892C36.3237 25.4898 36.0981 22.7007 34.9286 20.2575C34.8142 20.0182 34.7996 19.7432 34.888 19.493C34.9763 19.2429 35.1605 19.0381 35.3998 18.9238C35.6392 18.8094 35.9142 18.7948 36.1643 18.8832C36.4144 18.9715 36.6192 19.1557 36.7336 19.395Z" fill="white"/>
</g>
<rect x="0.5" y="0.5" width="49" height="49" rx="24.5" stroke="#D98918"/>
<defs>
<clipPath id="clip0_34_11383">
<rect x="1" y="1" width="48" height="48" rx="24" fill="white"/>
</clipPath>
</defs>
</svg>
