<svg width="50" height="50" viewBox="0 0 50 50" fill="none" xmlns="http://www.w3.org/2000/svg">
<g clip-path="url(#clip0_34_11393)">
<rect x="1" y="1" width="48" height="48" rx="24" fill="#E39B35"/>
<mask id="path-3-inside-1_34_11393" fill="white">
<path d="M25 0.999999C21.8483 0.999999 18.7274 1.62078 15.8156 2.82689C12.9038 4.033 10.258 5.80083 8.02944 8.02944C5.80083 10.258 4.033 12.9038 2.82689 15.8156C1.62078 18.7274 0.999999 21.8483 0.999999 25C0.999999 28.1517 1.62078 31.2726 2.82689 34.1844C4.033 37.0962 5.80083 39.742 8.02944 41.9706C10.258 44.1992 12.9038 45.967 15.8156 47.1731C18.7274 48.3792 21.8483 49 25 49L25 25L25 0.999999Z"/>
</mask>
<path d="M25 0.999999C21.8483 0.999999 18.7274 1.62078 15.8156 2.82689C12.9038 4.033 10.258 5.80083 8.02944 8.02944C5.80083 10.258 4.033 12.9038 2.82689 15.8156C1.62078 18.7274 0.999999 21.8483 0.999999 25C0.999999 28.1517 1.62078 31.2726 2.82689 34.1844C4.033 37.0962 5.80083 39.742 8.02944 41.9706C10.258 44.1992 12.9038 45.967 15.8156 47.1731C18.7274 48.3792 21.8483 49 25 49L25 25L25 0.999999Z" fill="#D98918" stroke="#E39B35" mask="url(#path-3-inside-1_34_11393)"/>
<path d="M31.0002 38C31.0002 38.2652 30.8948 38.5196 30.7073 38.7071C30.5197 38.8947 30.2654 39 30.0002 39H20.0002C19.7349 39 19.4806 38.8947 19.2931 38.7071C19.1055 38.5196 19.0002 38.2652 19.0002 38C19.0002 37.7348 19.1055 37.4804 19.2931 37.2929C19.4806 37.1054 19.7349 37 20.0002 37H30.0002C30.2654 37 30.5197 37.1054 30.7073 37.2929C30.8948 37.4804 31.0002 37.7348 31.0002 38ZM36.0002 22C36.0045 23.6671 35.6279 25.3131 34.8991 26.8124C34.1704 28.3117 33.1087 29.6248 31.7952 30.6513C31.5496 30.8395 31.3502 31.0815 31.2125 31.3585C31.0747 31.6356 31.0021 31.9406 31.0002 32.25V33C31.0002 33.5305 30.7894 34.0392 30.4144 34.4142C30.0393 34.7893 29.5306 35 29.0002 35H21.0002C20.4697 35 19.961 34.7893 19.586 34.4142C19.2109 34.0392 19.0002 33.5305 19.0002 33V32.25C19 31.9443 18.9297 31.6426 18.7947 31.3683C18.6597 31.094 18.4635 30.8542 18.2214 30.6675C16.9112 29.6471 15.8502 28.3419 15.1189 26.8509C14.3876 25.3599 14.005 23.722 14.0002 22.0613C13.9677 16.1038 18.7827 11.1425 24.7352 11C26.2018 10.9647 27.6608 11.2231 29.0261 11.76C30.3914 12.297 31.6355 13.1016 32.6852 14.1266C33.7349 15.1516 34.5689 16.3762 35.1382 17.7284C35.7075 19.0805 36.0006 20.5329 36.0002 22ZM34.0002 22C34.0005 20.7996 33.7607 19.6112 33.2949 18.5049C32.8291 17.3985 32.1466 16.3965 31.2877 15.5579C30.4288 14.7193 29.4108 14.0609 28.2936 13.6217C27.1765 13.1824 25.9827 12.971 24.7827 13C19.9077 13.115 15.9739 17.1738 16.0002 22.0488C16.0047 23.407 16.3182 24.7464 16.9167 25.9656C17.5153 27.1849 18.3833 28.252 19.4552 29.0863C19.937 29.4608 20.3267 29.9406 20.5945 30.489C20.8623 31.0374 21.001 31.6398 21.0002 32.25V33H29.0002V32.25C29.0016 31.638 29.1427 31.0344 29.4128 30.4853C29.683 29.9361 30.075 29.4559 30.5589 29.0813C31.634 28.2411 32.503 27.1663 33.0994 25.9391C33.6958 24.7118 34.0039 23.3645 34.0002 22ZM31.9864 20.8325C31.7271 19.3841 31.0303 18.05 29.9897 17.0096C28.9492 15.9693 27.6149 15.2728 26.1664 15.0138C26.0369 14.9919 25.9043 14.9958 25.7763 15.0252C25.6483 15.0546 25.5274 15.1089 25.4203 15.1851C25.3133 15.2612 25.2223 15.3577 25.1526 15.469C25.0829 15.5803 25.0357 15.7043 25.0139 15.8338C24.9921 15.9633 24.996 16.0958 25.0254 16.2238C25.0548 16.3519 25.1091 16.4728 25.1852 16.5798C25.2614 16.6869 25.3578 16.7778 25.4691 16.8476C25.5804 16.9173 25.7044 16.9644 25.8339 16.9863C27.9052 17.335 29.6627 19.0925 30.0139 21.1675C30.0535 21.4004 30.1742 21.6118 30.3548 21.7642C30.5353 21.9166 30.7639 22.0001 31.0002 22C31.0567 21.9997 31.1131 21.9951 31.1689 21.9863C31.4303 21.9416 31.6633 21.795 31.8166 21.5787C31.9699 21.3623 32.031 21.0939 31.9864 20.8325Z" fill="white"/>
</g>
<rect x="0.5" y="0.5" width="49" height="49" rx="24.5" stroke="#D98918"/>
<defs>
<clipPath id="clip0_34_11393">
<rect x="1" y="1" width="48" height="48" rx="24" fill="white"/>
</clipPath>
</defs>
</svg>
