<svg width="50" height="50" viewBox="0 0 50 50" fill="none" xmlns="http://www.w3.org/2000/svg">
<g clip-path="url(#clip0_34_11363)">
<rect x="1" y="1" width="48" height="48" rx="24" fill="#E39B35"/>
<mask id="path-3-inside-1_34_11363" fill="white">
<path d="M25 0.999999C21.8483 0.999999 18.7274 1.62078 15.8156 2.82689C12.9038 4.033 10.258 5.80083 8.02944 8.02944C5.80083 10.258 4.033 12.9038 2.82689 15.8156C1.62078 18.7274 0.999999 21.8483 0.999999 25C0.999999 28.1517 1.62078 31.2726 2.82689 34.1844C4.033 37.0962 5.80083 39.742 8.02944 41.9706C10.258 44.1992 12.9038 45.967 15.8156 47.1731C18.7274 48.3792 21.8483 49 25 49L25 25L25 0.999999Z"/>
</mask>
<path d="M25 0.999999C21.8483 0.999999 18.7274 1.62078 15.8156 2.82689C12.9038 4.033 10.258 5.80083 8.02944 8.02944C5.80083 10.258 4.033 12.9038 2.82689 15.8156C1.62078 18.7274 0.999999 21.8483 0.999999 25C0.999999 28.1517 1.62078 31.2726 2.82689 34.1844C4.033 37.0962 5.80083 39.742 8.02944 41.9706C10.258 44.1992 12.9038 45.967 15.8156 47.1731C18.7274 48.3792 21.8483 49 25 49L25 25L25 0.999999Z" fill="#D98918" stroke="#E39B35" mask="url(#path-3-inside-1_34_11363)"/>
<g clip-path="url(#clip1_34_11363)">
<path d="M13 17V27" stroke="white" stroke-width="2" stroke-linecap="round" stroke-linejoin="round"/>
<path d="M16 36C17.9625 32.99 21.1388 31 25 31C28.8612 31 32.0375 32.99 34 36" stroke="white" stroke-width="2" stroke-linecap="round" stroke-linejoin="round"/>
<path d="M37 17L25 21L13 17L25 13L37 17Z" stroke="white" stroke-width="2" stroke-linecap="round" stroke-linejoin="round"/>
<path d="M30.1675 19.2776C31.0833 20.2798 31.6879 21.5267 31.9077 22.8665C32.1274 24.2062 31.9529 25.5809 31.4052 26.8232C30.8576 28.0655 29.9605 29.1217 28.8232 29.8632C27.686 30.6048 26.3576 30.9996 25 30.9996C23.6424 30.9996 22.314 30.6048 21.1768 29.8632C20.0395 29.1217 19.1424 28.0655 18.5948 26.8232C18.0471 25.5809 17.8726 24.2062 18.0923 22.8665C18.3121 21.5267 18.9167 20.2798 19.8325 19.2776" stroke="white" stroke-width="2" stroke-linecap="round" stroke-linejoin="round"/>
</g>
</g>
<rect x="0.5" y="0.5" width="49" height="49" rx="24.5" stroke="#D98918"/>
<defs>
<clipPath id="clip0_34_11363">
<rect x="1" y="1" width="48" height="48" rx="24" fill="white"/>
</clipPath>
<clipPath id="clip1_34_11363">
<rect width="32" height="32" fill="white" transform="translate(9 9)"/>
</clipPath>
</defs>
</svg>
