<svg width="50" height="50" viewBox="0 0 50 50" fill="none" xmlns="http://www.w3.org/2000/svg">
<g clip-path="url(#clip0_34_11353)">
<rect x="1" y="1" width="48" height="48" rx="24" fill="#E39B35"/>
<mask id="path-3-inside-1_34_11353" fill="white">
<path d="M25 0.999999C21.8483 0.999999 18.7274 1.62078 15.8156 2.82689C12.9038 4.033 10.258 5.80083 8.02944 8.02944C5.80083 10.258 4.033 12.9038 2.82689 15.8156C1.62078 18.7274 0.999999 21.8483 0.999999 25C0.999999 28.1517 1.62078 31.2726 2.82689 34.1844C4.033 37.0962 5.80083 39.742 8.02944 41.9706C10.258 44.1992 12.9038 45.967 15.8156 47.1731C18.7274 48.3792 21.8483 49 25 49L25 25L25 0.999999Z"/>
</mask>
<path d="M25 0.999999C21.8483 0.999999 18.7274 1.62078 15.8156 2.82689C12.9038 4.033 10.258 5.80083 8.02944 8.02944C5.80083 10.258 4.033 12.9038 2.82689 15.8156C1.62078 18.7274 0.999999 21.8483 0.999999 25C0.999999 28.1517 1.62078 31.2726 2.82689 34.1844C4.033 37.0962 5.80083 39.742 8.02944 41.9706C10.258 44.1992 12.9038 45.967 15.8156 47.1731C18.7274 48.3792 21.8483 49 25 49L25 25L25 0.999999Z" fill="#D98918" stroke="#E39B35" mask="url(#path-3-inside-1_34_11353)"/>
<path d="M39.0001 16V24C39.0001 24.2652 38.8947 24.5196 38.7072 24.7071C38.5196 24.8946 38.2653 25 38.0001 25C37.7349 25 37.4805 24.8946 37.293 24.7071C37.1054 24.5196 37.0001 24.2652 37.0001 24V18.4137L26.7076 28.7075C26.6147 28.8005 26.5044 28.8742 26.383 28.9246C26.2616 28.9749 26.1315 29.0008 26.0001 29.0008C25.8687 29.0008 25.7385 28.9749 25.6171 28.9246C25.4957 28.8742 25.3854 28.8005 25.2926 28.7075L21.0001 24.4137L12.7076 32.7075C12.5199 32.8951 12.2654 33.0006 12.0001 33.0006C11.7347 33.0006 11.4802 32.8951 11.2926 32.7075C11.1049 32.5199 10.9995 32.2654 10.9995 32C10.9995 31.7346 11.1049 31.4801 11.2926 31.2925L20.2926 22.2925C20.3854 22.1995 20.4957 22.1258 20.6171 22.0754C20.7385 22.0251 20.8687 21.9992 21.0001 21.9992C21.1315 21.9992 21.2616 22.0251 21.383 22.0754C21.5044 22.1258 21.6147 22.1995 21.7076 22.2925L26.0001 26.5863L35.5863 17H30.0001C29.7349 17 29.4805 16.8946 29.293 16.7071C29.1054 16.5196 29.0001 16.2652 29.0001 16C29.0001 15.7348 29.1054 15.4804 29.293 15.2929C29.4805 15.1054 29.7349 15 30.0001 15H38.0001C38.2653 15 38.5196 15.1054 38.7072 15.2929C38.8947 15.4804 39.0001 15.7348 39.0001 16Z" fill="white"/>
</g>
<rect x="0.5" y="0.5" width="49" height="49" rx="24.5" stroke="#D98918"/>
<defs>
<clipPath id="clip0_34_11353">
<rect x="1" y="1" width="48" height="48" rx="24" fill="white"/>
</clipPath>
</defs>
</svg>
