<svg width="50" height="50" viewBox="0 0 50 50" fill="none" xmlns="http://www.w3.org/2000/svg">
<g clip-path="url(#clip0_34_13092)">
<rect x="1" y="1" width="48" height="48" rx="24" fill="#E39B35"/>
<mask id="path-3-inside-1_34_13092" fill="white">
<path d="M25 0.999999C21.8483 0.999999 18.7274 1.62078 15.8156 2.82689C12.9038 4.033 10.258 5.80083 8.02944 8.02944C5.80083 10.258 4.033 12.9038 2.82689 15.8156C1.62078 18.7274 0.999999 21.8483 0.999999 25C0.999999 28.1517 1.62078 31.2726 2.82689 34.1844C4.033 37.0962 5.80083 39.742 8.02944 41.9706C10.258 44.1992 12.9038 45.967 15.8156 47.1731C18.7274 48.3792 21.8483 49 25 49L25 25L25 0.999999Z"/>
</mask>
<path d="M25 0.999999C21.8483 0.999999 18.7274 1.62078 15.8156 2.82689C12.9038 4.033 10.258 5.80083 8.02944 8.02944C5.80083 10.258 4.033 12.9038 2.82689 15.8156C1.62078 18.7274 0.999999 21.8483 0.999999 25C0.999999 28.1517 1.62078 31.2726 2.82689 34.1844C4.033 37.0962 5.80083 39.742 8.02944 41.9706C10.258 44.1992 12.9038 45.967 15.8156 47.1731C18.7274 48.3792 21.8483 49 25 49L25 25L25 0.999999Z" fill="#D98918" stroke="#E39B35" mask="url(#path-3-inside-1_34_13092)"/>
<path d="M37.2325 21.8525C36.7612 21.36 36.2738 20.8525 36.09 20.4062C35.92 19.9975 35.91 19.32 35.9 18.6637C35.8813 17.4437 35.8612 16.0612 34.9 15.1C33.9387 14.1387 32.5562 14.1187 31.3363 14.1C30.68 14.09 30.0025 14.08 29.5938 13.91C29.1488 13.7262 28.64 13.2387 28.1475 12.7675C27.285 11.9387 26.305 11 25 11C23.695 11 22.7162 11.9387 21.8525 12.7675C21.36 13.2387 20.8525 13.7262 20.4062 13.91C20 14.08 19.32 14.09 18.6637 14.1C17.4437 14.1187 16.0612 14.1387 15.1 15.1C14.1387 16.0612 14.125 17.4437 14.1 18.6637C14.09 19.32 14.08 19.9975 13.91 20.4062C13.7262 20.8512 13.2387 21.36 12.7675 21.8525C11.9387 22.715 11 23.695 11 25C11 26.305 11.9387 27.2837 12.7675 28.1475C13.2387 28.64 13.7262 29.1475 13.91 29.5938C14.08 30.0025 14.09 30.68 14.1 31.3363C14.1187 32.5562 14.1387 33.9387 15.1 34.9C16.0612 35.8612 17.4437 35.8813 18.6637 35.9C19.32 35.91 19.9975 35.92 20.4062 36.09C20.8512 36.2738 21.36 36.7612 21.8525 37.2325C22.715 38.0613 23.695 39 25 39C26.305 39 27.2837 38.0613 28.1475 37.2325C28.64 36.7612 29.1475 36.2738 29.5938 36.09C30.0025 35.92 30.68 35.91 31.3363 35.9C32.5562 35.8813 33.9387 35.8612 34.9 34.9C35.8612 33.9387 35.8813 32.5562 35.9 31.3363C35.91 30.68 35.92 30.0025 36.09 29.5938C36.2738 29.1488 36.7612 28.64 37.2325 28.1475C38.0613 27.285 39 26.305 39 25C39 23.695 38.0613 22.7162 37.2325 21.8525ZM35.7887 26.7638C35.19 27.3888 34.57 28.035 34.2412 28.8288C33.9262 29.5913 33.9125 30.4625 33.9 31.3062C33.8875 32.1812 33.8738 33.0975 33.485 33.485C33.0963 33.8725 32.1862 33.8875 31.3062 33.9C30.4625 33.9125 29.5913 33.9262 28.8288 34.2412C28.035 34.57 27.3888 35.19 26.7638 35.7887C26.1388 36.3875 25.5 37 25 37C24.5 37 23.8562 36.385 23.2362 35.7887C22.6163 35.1925 21.965 34.57 21.1713 34.2412C20.4088 33.9262 19.5375 33.9125 18.6938 33.9C17.8188 33.8875 16.9025 33.8738 16.515 33.485C16.1275 33.0963 16.1125 32.1862 16.1 31.3062C16.0875 30.4625 16.0738 29.5913 15.7587 28.8288C15.43 28.035 14.81 27.3888 14.2112 26.7638C13.6125 26.1388 13 25.5 13 25C13 24.5 13.615 23.8562 14.2112 23.2362C14.8075 22.6163 15.43 21.965 15.7587 21.1713C16.0738 20.4088 16.0875 19.5375 16.1 18.6938C16.1125 17.8188 16.1262 16.9025 16.515 16.515C16.9037 16.1275 17.8138 16.1125 18.6938 16.1C19.5375 16.0875 20.4088 16.0738 21.1713 15.7587C21.965 15.43 22.6112 14.81 23.2362 14.2112C23.8612 13.6125 24.5 13 25 13C25.5 13 26.1438 13.615 26.7638 14.2112C27.3838 14.8075 28.035 15.43 28.8288 15.7587C29.5913 16.0738 30.4625 16.0875 31.3062 16.1C32.1812 16.1125 33.0975 16.1262 33.485 16.515C33.8725 16.9037 33.8875 17.8138 33.9 18.6938C33.9125 19.5375 33.9262 20.4088 34.2412 21.1713C34.57 21.965 35.19 22.6112 35.7887 23.2362C36.3875 23.8612 37 24.5 37 25C37 25.5 36.385 26.1438 35.7887 26.7638ZM30.7075 21.2925C30.8005 21.3854 30.8742 21.4957 30.9246 21.6171C30.9749 21.7385 31.0008 21.8686 31.0008 22C31.0008 22.1314 30.9749 22.2615 30.9246 22.3829C30.8742 22.5043 30.8005 22.6146 30.7075 22.7075L23.7075 29.7075C23.6146 29.8005 23.5043 29.8742 23.3829 29.9246C23.2615 29.9749 23.1314 30.0008 23 30.0008C22.8686 30.0008 22.7385 29.9749 22.6171 29.9246C22.4957 29.8742 22.3854 29.8005 22.2925 29.7075L19.2925 26.7075C19.1049 26.5199 18.9994 26.2654 18.9994 26C18.9994 25.7346 19.1049 25.4801 19.2925 25.2925C19.4801 25.1049 19.7346 24.9994 20 24.9994C20.2654 24.9994 20.5199 25.1049 20.7075 25.2925L23 27.5863L29.2925 21.2925C29.3854 21.1995 29.4957 21.1258 29.6171 21.0754C29.7385 21.0251 29.8686 20.9992 30 20.9992C30.1314 20.9992 30.2615 21.0251 30.3829 21.0754C30.5043 21.1258 30.6146 21.1995 30.7075 21.2925Z" fill="white"/>
</g>
<rect x="0.5" y="0.5" width="49" height="49" rx="24.5" stroke="#D98918"/>
<defs>
<clipPath id="clip0_34_13092">
<rect x="1" y="1" width="48" height="48" rx="24" fill="white"/>
</clipPath>
</defs>
</svg>
