<svg width="17" height="18" viewBox="0 0 17 18" fill="none" xmlns="http://www.w3.org/2000/svg">
<path d="M15.0738 0.920143H1.22014C0.58535 0.920143 0.0695801 1.44313 0.0695801 2.08513V15.9135C0.0695801 16.5555 0.58535 17.0785 1.22014 17.0785H15.0738C15.7086 17.0785 16.228 16.5555 16.228 15.9135V2.08513C16.228 1.44313 15.7086 0.920143 15.0738 0.920143ZM4.95316 14.7702H2.55826V7.05889H4.95677V14.7702H4.95316ZM3.75571 6.00571C2.98747 6.00571 2.3671 5.38173 2.3671 4.6171C2.3671 3.85246 2.98747 3.22848 3.75571 3.22848C4.52035 3.22848 5.14432 3.85246 5.14432 4.6171C5.14432 5.38534 4.52396 6.00571 3.75571 6.00571ZM13.9304 14.7702H11.5355V11.0191C11.5355 10.1247 11.5175 8.97409 10.2912 8.97409C9.04325 8.97409 8.8521 9.94792 8.8521 10.9542V14.7702H6.45719V7.05889H8.75471V8.11207H8.78717C9.10818 7.50613 9.89085 6.86773 11.0558 6.86773C13.4796 6.86773 13.9304 8.46553 13.9304 10.543V14.7702Z" fill="white"/>
</svg>
