<svg width="50" height="50" viewBox="0 0 50 50" fill="none" xmlns="http://www.w3.org/2000/svg">
<g clip-path="url(#clip0_34_13103)">
<rect x="1" y="1" width="48" height="48" rx="24" fill="#E39B35"/>
<mask id="path-3-inside-1_34_13103" fill="white">
<path d="M25 0.999999C21.8483 0.999999 18.7274 1.62078 15.8156 2.82689C12.9038 4.033 10.258 5.80083 8.02944 8.02944C5.80083 10.258 4.033 12.9038 2.82689 15.8156C1.62078 18.7274 0.999999 21.8483 0.999999 25C0.999999 28.1517 1.62078 31.2726 2.82689 34.1844C4.033 37.0962 5.80083 39.742 8.02944 41.9706C10.258 44.1992 12.9038 45.967 15.8156 47.1731C18.7274 48.3792 21.8483 49 25 49L25 25L25 0.999999Z"/>
</mask>
<path d="M25 0.999999C21.8483 0.999999 18.7274 1.62078 15.8156 2.82689C12.9038 4.033 10.258 5.80083 8.02944 8.02944C5.80083 10.258 4.033 12.9038 2.82689 15.8156C1.62078 18.7274 0.999999 21.8483 0.999999 25C0.999999 28.1517 1.62078 31.2726 2.82689 34.1844C4.033 37.0962 5.80083 39.742 8.02944 41.9706C10.258 44.1992 12.9038 45.967 15.8156 47.1731C18.7274 48.3792 21.8483 49 25 49L25 25L25 0.999999Z" fill="#D98918" stroke="#E39B35" mask="url(#path-3-inside-1_34_13103)"/>
<g clip-path="url(#clip1_34_13103)">
<path d="M25 25.1362V37.9962" stroke="white" stroke-width="2" stroke-linecap="round" stroke-linejoin="round"/>
<path d="M13.0874 18.6152L24.9999 25.1352L36.9124 18.6152" stroke="white" stroke-width="2" stroke-linecap="round" stroke-linejoin="round"/>
<path d="M36.48 31.8552L25.48 37.8777C25.3328 37.9582 25.1678 38.0004 25 38.0004C24.8322 38.0004 24.6672 37.9582 24.52 37.8777L13.52 31.8552C13.3629 31.7692 13.2318 31.6427 13.1403 31.4888C13.0489 31.3349 13.0004 31.1592 13 30.9802V19.0227C13.0004 18.8436 13.0489 18.668 13.1403 18.5141C13.2318 18.3601 13.3629 18.2336 13.52 18.1477L24.52 12.1252C24.6672 12.0446 24.8322 12.0024 25 12.0024C25.1678 12.0024 25.3328 12.0446 25.48 12.1252L36.48 18.1477C36.6371 18.2336 36.7682 18.3601 36.8597 18.5141C36.9511 18.668 36.9996 18.8436 37 19.0227V30.9777C37 31.1571 36.9518 31.3333 36.8603 31.4877C36.7688 31.6421 36.6374 31.769 36.48 31.8552Z" stroke="white" stroke-width="2" stroke-linecap="round" stroke-linejoin="round"/>
<path d="M19.1948 15.0386L30.9998 21.4998V27.9998" stroke="white" stroke-width="2" stroke-linecap="round" stroke-linejoin="round"/>
</g>
</g>
<rect x="0.5" y="0.5" width="49" height="49" rx="24.5" stroke="#D98918"/>
<defs>
<clipPath id="clip0_34_13103">
<rect x="1" y="1" width="48" height="48" rx="24" fill="white"/>
</clipPath>
<clipPath id="clip1_34_13103">
<rect width="32" height="32" fill="white" transform="translate(9 9)"/>
</clipPath>
</defs>
</svg>
