<svg width="48" height="49" viewBox="0 0 48 49" fill="none" xmlns="http://www.w3.org/2000/svg">
<g clip-path="url(#clip0_34_11060)">
<path d="M30 15.5V38.1256C30.0001 38.3723 30.0611 38.6152 30.1776 38.8327C30.294 39.0502 30.4623 39.2356 30.6675 39.3725L32.73 40.7469C32.9301 40.8803 33.1593 40.9636 33.3983 40.9899C33.6373 41.0161 33.8791 40.9845 34.1033 40.8978C34.3276 40.811 34.5277 40.6716 34.6868 40.4913C34.8459 40.3111 34.9593 40.0952 35.0175 39.8619L37.5 30.5" stroke="#A93935" stroke-width="2" stroke-linecap="round" stroke-linejoin="round"/>
<path d="M7.5 38C7.50007 38.2856 7.5817 38.5653 7.73531 38.8062C7.88891 39.047 8.1081 39.239 8.36709 39.3595C8.62608 39.4801 8.9141 39.5242 9.19728 39.4866C9.48046 39.449 9.74703 39.3314 9.96563 39.1475C19.7906 30.905 30 30.5 30 30.5H37.5C39.4891 30.5 41.3968 29.7098 42.8033 28.3033C44.2098 26.8967 45 24.9891 45 23C45 21.0108 44.2098 19.1032 42.8033 17.6967C41.3968 16.2901 39.4891 15.5 37.5 15.5H30C30 15.5 19.7906 15.095 9.96563 6.85435C9.74715 6.67055 9.48076 6.55293 9.19774 6.51529C8.91473 6.47765 8.62686 6.52156 8.36794 6.64187C8.10902 6.76217 7.88981 6.95387 7.73606 7.19444C7.58232 7.43501 7.50042 7.71447 7.5 7.99997V38Z" stroke="#A93935" stroke-width="2" stroke-linecap="round" stroke-linejoin="round"/>
</g>
<defs>
<clipPath id="clip0_34_11060">
<rect width="48" height="48" fill="white" transform="translate(0 0.5)"/>
</clipPath>
</defs>
</svg>
