<svg width="50" height="50" viewBox="0 0 50 50" fill="none" xmlns="http://www.w3.org/2000/svg">
<g clip-path="url(#clip0_34_13114)">
<rect x="1" y="1" width="48" height="48" rx="24" fill="#E39B35"/>
<mask id="path-3-inside-1_34_13114" fill="white">
<path d="M25 0.999999C21.8483 0.999999 18.7274 1.62078 15.8156 2.82689C12.9038 4.033 10.258 5.80083 8.02944 8.02944C5.80083 10.258 4.033 12.9038 2.82689 15.8156C1.62078 18.7274 0.999999 21.8483 0.999999 25C0.999999 28.1517 1.62078 31.2726 2.82689 34.1844C4.033 37.0962 5.80083 39.742 8.02944 41.9706C10.258 44.1992 12.9038 45.967 15.8156 47.1731C18.7274 48.3792 21.8483 49 25 49L25 25L25 0.999999Z"/>
</mask>
<path d="M25 0.999999C21.8483 0.999999 18.7274 1.62078 15.8156 2.82689C12.9038 4.033 10.258 5.80083 8.02944 8.02944C5.80083 10.258 4.033 12.9038 2.82689 15.8156C1.62078 18.7274 0.999999 21.8483 0.999999 25C0.999999 28.1517 1.62078 31.2726 2.82689 34.1844C4.033 37.0962 5.80083 39.742 8.02944 41.9706C10.258 44.1992 12.9038 45.967 15.8156 47.1731C18.7274 48.3792 21.8483 49 25 49L25 25L25 0.999999Z" fill="#D98918" stroke="#E39B35" mask="url(#path-3-inside-1_34_13114)"/>
<g clip-path="url(#clip1_34_13114)">
<path d="M22.5 27H14C13.7348 27 13.4804 26.8946 13.2929 26.7071C13.1054 26.5196 13 26.2652 13 26V18C13 17.7348 13.1054 17.4804 13.2929 17.2929C13.4804 17.1054 13.7348 17 14 17H21.5C21.7652 17 22.0196 17.1054 22.2071 17.2929C22.3946 17.4804 22.5 17.7348 22.5 18V29C22.5 30.3261 21.9732 31.5979 21.0355 32.5355C20.0979 33.4732 18.8261 34 17.5 34" stroke="white" stroke-width="2" stroke-linecap="round" stroke-linejoin="round"/>
<path d="M37 27H28.5C28.2348 27 27.9804 26.8946 27.7929 26.7071C27.6054 26.5196 27.5 26.2652 27.5 26V18C27.5 17.7348 27.6054 17.4804 27.7929 17.2929C27.9804 17.1054 28.2348 17 28.5 17H36C36.2652 17 36.5196 17.1054 36.7071 17.2929C36.8946 17.4804 37 17.7348 37 18V29C37 30.3261 36.4732 31.5979 35.5355 32.5355C34.5979 33.4732 33.3261 34 32 34" stroke="white" stroke-width="2" stroke-linecap="round" stroke-linejoin="round"/>
</g>
</g>
<rect x="0.5" y="0.5" width="49" height="49" rx="24.5" stroke="#D98918"/>
<defs>
<clipPath id="clip0_34_13114">
<rect x="1" y="1" width="48" height="48" rx="24" fill="white"/>
</clipPath>
<clipPath id="clip1_34_13114">
<rect width="32" height="32" fill="white" transform="translate(9 9)"/>
</clipPath>
</defs>
</svg>
