<svg width="150" height="150" viewBox="0 0 150 150" fill="none" xmlns="http://www.w3.org/2000/svg">
<path d="M82.0312 42.1875V93.75C82.039 101.207 85.0047 108.356 90.2774 113.629C95.5502 118.902 102.699 121.867 110.156 121.875C111.399 121.875 112.592 121.381 113.471 120.502C114.35 119.623 114.844 118.431 114.844 117.188C114.844 115.944 114.35 114.752 113.471 113.873C112.592 112.994 111.399 112.5 110.156 112.5C105.183 112.5 100.414 110.525 96.898 107.008C93.3817 103.492 91.4062 98.7228 91.4062 93.75V89.0625H126.562C129.049 89.0625 131.433 88.0748 133.192 86.3166C134.95 84.5585 135.938 82.1739 135.938 79.6875V42.1875C135.938 39.7011 134.95 37.3165 133.192 35.5584C131.433 33.8002 129.049 32.8125 126.562 32.8125H91.4062C88.9198 32.8125 86.5353 33.8002 84.7771 35.5584C83.019 37.3165 82.0312 39.7011 82.0312 42.1875ZM23.4375 32.8125H58.5938C61.0802 32.8125 63.4647 33.8002 65.2229 35.5584C66.981 37.3165 67.9688 39.7011 67.9688 42.1875V79.6875C67.9688 82.1739 66.981 84.5585 65.2229 86.3166C63.4647 88.0748 61.0802 89.0625 58.5938 89.0625H23.4375V93.75C23.4375 98.7228 25.4129 103.492 28.9293 107.008C32.4456 110.525 37.2147 112.5 42.1875 112.5C43.4307 112.5 44.623 112.994 45.5021 113.873C46.3811 114.752 46.875 115.944 46.875 117.188C46.875 118.431 46.3811 119.623 45.5021 120.502C44.623 121.381 43.4307 121.875 42.1875 121.875C34.7307 121.867 27.5815 118.902 22.3087 113.629C17.0359 108.356 14.0703 101.207 14.0625 93.75V42.1875C14.0625 39.7011 15.0502 37.3165 16.8084 35.5584C18.5665 33.8002 20.9511 32.8125 23.4375 32.8125Z" fill="#192451" fill-opacity="0.1"/>
</svg>
