<svg width="20" height="16" viewBox="0 0 20 16" fill="none" xmlns="http://www.w3.org/2000/svg">
<path d="M17.3534 4.23792C17.3651 4.40195 17.3651 4.56603 17.3651 4.73006C17.3651 9.73339 13.557 15.4984 6.59677 15.4984C4.45247 15.4984 2.46052 14.8773 0.784912 13.7994C1.08958 13.8345 1.38248 13.8462 1.69887 13.8462C3.46818 13.8462 5.09693 13.2487 6.39757 12.2292C4.73369 12.1941 3.33931 11.1044 2.85888 9.60452C3.09325 9.63965 3.32759 9.6631 3.57368 9.6631C3.91347 9.6631 4.2533 9.61621 4.56965 9.53423C2.83548 9.18267 1.5348 7.65942 1.5348 5.81978V5.77293C2.03863 6.05415 2.62455 6.22991 3.24553 6.25332C2.22611 5.57369 1.55824 4.41368 1.55824 3.10131C1.55824 2.39828 1.74569 1.75382 2.0738 1.19138C3.93688 3.488 6.73737 4.9878 9.87761 5.15188C9.81904 4.87066 9.78387 4.57775 9.78387 4.28481C9.78387 2.19908 11.4712 0.500065 13.5686 0.500065C14.6583 0.500065 15.6426 0.957044 16.3339 1.69524C17.1893 1.53121 18.0095 1.21482 18.736 0.781286C18.4548 1.66011 17.8572 2.39831 17.0721 2.86698C17.8338 2.785 18.572 2.57404 19.2516 2.28113C18.7361 3.03102 18.0916 3.69888 17.3534 4.23792V4.23792Z" fill="white"/>
</svg>
