<svg width="20" height="14" viewBox="0 0 20 14" fill="none" xmlns="http://www.w3.org/2000/svg">
<path d="M19.5885 2.2411C19.362 1.38809 18.6945 0.716293 17.847 0.488309C16.3109 0.0740337 10.1512 0.0740337 10.1512 0.0740337C10.1512 0.0740337 3.99152 0.0740337 2.45535 0.488309C1.60787 0.71633 0.940394 1.38809 0.713852 2.2411C0.302246 3.78722 0.302246 7.01305 0.302246 7.01305C0.302246 7.01305 0.302246 10.2389 0.713852 11.785C0.940394 12.638 1.60787 13.2818 2.45535 13.5098C3.99152 13.9241 10.1512 13.9241 10.1512 13.9241C10.1512 13.9241 16.3108 13.9241 17.847 13.5098C18.6945 13.2818 19.362 12.638 19.5885 11.785C20.0001 10.2389 20.0001 7.01305 20.0001 7.01305C20.0001 7.01305 20.0001 3.78722 19.5885 2.2411V2.2411ZM8.13661 9.94187V4.08423L13.2849 7.01312L8.13661 9.94187V9.94187Z" fill="white"/>
</svg>
